<svg id="Layer_1" data-name="Layer 1" xmlns="http://www.w3.org/2000/svg" xmlns:xlink="http://www.w3.org/1999/xlink" viewBox="0 0 480.8 348.2"><defs><style>.cls-1,.cls-13,.cls-14,.cls-15,.cls-16,.cls-20,.cls-21,.cls-22,.cls-4{fill:none;}.cls-2{clip-path:url(#clip-path);}.cls-3{fill:#8e716c;}.cls-13,.cls-14,.cls-16,.cls-20,.cls-21,.cls-4{stroke:#282828;stroke-linecap:round;stroke-linejoin:round;}.cls-4{stroke-width:1.23px;}.cls-5{fill:#ffb1a5;}.cls-6{fill:#f3978e;}.cls-7{fill:#372f5f;}.cls-8{fill:#261b43;}.cls-9{fill:#e6e6e6;}.cls-10{fill:#fff;}.cls-11{fill:#56dfed;}.cls-12{fill:#282828;}.cls-13{stroke-width:0.99px;}.cls-14{stroke-width:1.23px;}.cls-15{stroke:#c98bd2;stroke-width:1.34px;}.cls-15,.cls-22{stroke-miterlimit:10;}.cls-16{stroke-width:1.23px;}.cls-17{fill:#00857b;}.cls-18{fill:#005683;}.cls-19{fill:#c98bd2;}.cls-20{stroke-width:1.53px;}.cls-21{stroke-width:1.4px;}.cls-22{stroke:#fff;stroke-width:1.95px;}</style><clipPath id="clip-path"><rect class="cls-1" x="-0.01" y="-0.05" width="480.83" height="348.3"/></clipPath></defs><g class="cls-2"><path class="cls-3" d="M359.07,231.5l-38.21-5.09.29,3.79-32.67,4.35S267.42,287.39,286,403.6h26.58l9.57-117.83h3.39l9.27,117.83h26.58C379.93,287.39,359.07,231.5,359.07,231.5Z"/><line class="cls-4" x1="309.97" y1="285.77" x2="337.7" y2="285.77"/><path class="cls-5" d="M381.39,175.76c-3.27-5.22-21.64-5-22.61-5.15-5-.58,3.19,38.92,13.51,73.46a11.6,11.6,0,0,0,15.63,7.37l.21-.09A11.59,11.59,0,0,0,395,238.51C390.1,212.45,385.17,181.79,381.39,175.76Z"/><polygon class="cls-6" points="385.76 190.04 362.32 199.14 360.12 188.02 384.4 181.96 385.76 190.04"/><path class="cls-6" d="M390.19,212.3l-10.58,14.23c.53-.69,8.72-24.11,8.72-24.11Z"/><path class="cls-5" d="M406.07,192.25,374.24,233.5a11.7,11.7,0,0,0,2.89,17h0a11.71,11.71,0,0,0,16.67-4.24l26.5-48.89Z"/><path class="cls-5" d="M414.32,202.84a13.13,13.13,0,1,1,16.53-8.46A13.12,13.12,0,0,1,414.32,202.84Z"/><path class="cls-5" d="M427.93,182.45s3.59-3.73-2.78-6.35-14.26-2-19.29,10.21Z"/><path class="cls-7" d="M434.53,156.38l13.34,5.78a1.37,1.37,0,0,1,.6,2l-17.54,32.76a1.68,1.68,0,0,1-2.08.8l-13.33-5.78a1.38,1.38,0,0,1-.61-2l17.54-32.76A1.68,1.68,0,0,1,434.53,156.38Z"/><path class="cls-8" d="M433.26,155.8l13.33,5.78a1.38,1.38,0,0,1,.61,2L429.66,196.3a1.68,1.68,0,0,1-2.08.8l-13.34-5.78a1.37,1.37,0,0,1-.6-2l17.54-32.76A1.68,1.68,0,0,1,433.26,155.8Z"/><polygon class="cls-9" points="431.76 159.13 443.47 164.21 429.18 190.91 417.46 185.83 431.76 159.13"/><polygon class="cls-10" points="443.47 164.21 417.46 185.83 431.76 159.13 443.47 164.21"/><path class="cls-5" d="M421.32,175a21.25,21.25,0,0,1,5.65,2.1,3,3,0,0,1,1.45,3.35h0a3,3,0,0,1-2.53,2.25l-6.93.87s-3.61,6.23-8.34,6.93L415,179.57Z"/><path class="cls-11" d="M332.81,123.81c-.77,0,49.15,6.9,57.38,63.81l-25.9,4-5.22,43H286.81l-14.34-79.37s16-23,45.73-31.37Z"/><line class="cls-4" x1="364.29" y1="191.59" x2="366.54" y2="166.74"/><path class="cls-5" d="M337.55,124.62V104.85H314.39v20a45.61,45.61,0,0,0-6.23,2.53l18.07,10.76,18.47-10.76A29.93,29.93,0,0,0,337.55,124.62Z"/><path class="cls-12" d="M314.17,107.27s4.16,11,15.27,10.09c10.2-.87,8.58-16.18,8.58-16.18Z"/><path class="cls-6" d="M304.07,92.58c-3.63,3.29-11.75-9.2-8.24-12.71s6.18,2,6.18,2l1.57,3.73,1.18,5.05L305,92Z"/><path class="cls-13" d="M297.52,84.3s2.75-1.24,5.19,2.75"/><path class="cls-6" d="M347,92.2c3.34,3.59,12.48-8.17,9.28-12S350,81.7,350,81.7l-1.87,3.58-1.61,4.94-.39,1.29Z"/><path class="cls-13" d="M354.23,84.5s-2.63-1.46-5.4,2.3"/><path class="cls-12" d="M297.7,68c0,16.53,12.61,24.37,28.16,24.37S354,84.49,354,68s-12.61-27.79-28.16-27.79S297.7,51.42,297.7,68Z"/><path class="cls-5" d="M301.53,69.11a113.27,113.27,0,0,0,2.86,25.13c1.41,6.08,5.35,10.34,10.92,13.76l1,.62a19.16,19.16,0,0,0,19.51.22h0c6-3.52,10.26-8.16,11.57-14.7a165.84,165.84,0,0,0,2.62-25s2.25-25.63-23.9-25.13S301.53,69.11,301.53,69.11Z"/><path class="cls-14" d="M324.19,83.73v3.55a1.45,1.45,0,0,0,.12.59,1.56,1.56,0,0,0,1.88.87l1.63-.43"/><path class="cls-12" d="M320,70l-13,3s.59-3.31,5.91-4.51S320,70,320,70Z"/><path class="cls-12" d="M331.57,70l12.55,3s-.57-3.31-5.7-4.51S331.57,70,331.57,70Z"/><ellipse class="cls-12" cx="315.09" cy="79.53" rx="2.19" ry="2.19"/><path class="cls-12" d="M338.07,79.53a2.19,2.19,0,1,1-2.19-2.19A2.19,2.19,0,0,1,338.07,79.53Z"/><path class="cls-10" d="M317.29,92.87h16.9S326.7,102,317.29,92.87Z"/><circle class="cls-15" cx="314.17" cy="80.38" r="9.32" transform="translate(35.18 245.7) rotate(-45)"/><circle class="cls-15" cx="337.07" cy="80.38" r="9.32" transform="translate(41.89 261.89) rotate(-45)"/><path class="cls-15" d="M323.49,80.38s2.21-2.06,4.26,0"/><line class="cls-15" x1="304.85" y1="80.38" x2="301.91" y2="80.31"/><line class="cls-15" x1="346.4" y1="80.38" x2="349.35" y2="80.31"/><path class="cls-12" d="M349.69,77.6s-10.45-14.14-8-28.46a20.61,20.61,0,0,1,9.78,14C353.45,73.21,349.69,77.6,349.69,77.6Z"/><path class="cls-12" d="M301.51,78.56s12.15-16.06,9.74-30.38a23.92,23.92,0,0,0-10.45,15C298.78,73.21,301.51,78.56,301.51,78.56Z"/><path class="cls-12" d="M348.82,54.78S335.39,69.48,298.65,67c0,0,5.62-21.57,23.43-23.87C322.08,43.1,342.64,40.64,348.82,54.78Z"/><circle class="cls-12" cx="347.87" cy="37.6" r="17.54" transform="translate(255.32 375.04) rotate(-80.83)"/><path class="cls-12" d="M133.73,231.46l-32.67-4.35.3-3.8L63.14,228.4s-20.85,55.89-2.29,172.1H87.42l9.27-117.83h3.4l9.56,117.83h26.58C154.79,284.29,133.73,231.46,133.73,231.46Z"/><path class="cls-12" d="M131.13,72.49a60.28,60.28,0,0,1-11-19.79c-3.23-9.14-13.8-5.43-13.8-5.43s-8.82-11.34-22.08-7.39S66.4,53.27,66.13,64.49s-9.1,13-15.9,26c-12,22.92,8.2,42.22,45,36.86l.05-.35a38.58,38.58,0,0,0,13.47,1.26C152.91,125.59,148.65,93.1,131.13,72.49Z"/><path class="cls-6" d="M116.66,89.48c3.63,3.29,11.75-9.2,8.24-12.7s-6.18,2-6.18,2l-1.57,3.73-1.18,5-.28,1.32Z"/><path class="cls-13" d="M123.21,81.2S120.46,80,118,84"/><path class="cls-6" d="M73.72,89.1c-3.34,3.59-12.48-8.17-9.28-12s6.33,1.46,6.33,1.46l1.87,3.59,1.61,4.93.39,1.29Z"/><path class="cls-13" d="M66.5,81.41s2.64-1.47,5.41,2.29"/><path class="cls-12" d="M123,64.86c0,16.54-12.61,24.38-28.16,24.38S66.71,81.4,66.71,64.86,79.32,37.08,94.87,37.08,123,48.32,123,64.86Z"/><rect class="cls-5" x="83.18" y="101.76" width="23.16" height="30"/><path class="cls-12" d="M79.8,99.89s6.45,12.87,14.38,14.87a11.11,11.11,0,0,0,6.43-.37c3-1,6.77-5.51,7.41-10.43l.3-2.82S94.21,108.83,79.8,99.89Z"/><path class="cls-5" d="M119.2,66a113.27,113.27,0,0,1-2.86,25.13c-1.4,6.08-5.35,10.34-10.92,13.76l-1,.63a19.16,19.16,0,0,1-19.5.21h0c-6-3.52-10.27-8.16-11.57-14.69A165.16,165.16,0,0,1,70.7,66S68.45,40.38,94.61,40.88,119.2,66,119.2,66Z"/><path class="cls-16" d="M93.12,82v2.11a1.63,1.63,0,0,0,.12.59,1.57,1.57,0,0,0,1.88.87l1.63-.43"/><path class="cls-12" d="M98.57,68.13l13.92,3.29s-.63-3.57-6.32-4.87S98.57,68.13,98.57,68.13Z"/><path class="cls-12" d="M91.27,68.13l-14.1,3.29s.64-3.57,6.41-4.87S91.27,68.13,91.27,68.13Z"/><path class="cls-12" d="M86.22,76.77A2.2,2.2,0,1,1,84,74.59,2.19,2.19,0,0,1,86.22,76.77Z"/><path class="cls-12" d="M107,76.77a2.19,2.19,0,1,1-2.19-2.18A2.19,2.19,0,0,1,107,76.77Z"/><path class="cls-10" d="M84.77,89.24H104s-1.36,5.28-10.08,5.28A10.2,10.2,0,0,1,84.77,89.24Z"/><path class="cls-12" d="M71,74.51S81.5,60.37,79.08,46A20.61,20.61,0,0,0,69.3,60C67.28,70.12,71,74.51,71,74.51Z"/><path class="cls-12" d="M119.22,74s-12.15-14.63-9.74-29a23.92,23.92,0,0,1,10.45,15C122,70.12,119.22,74,119.22,74Z"/><path class="cls-12" d="M71.91,51.69s12,16.13,48.74,13.61c0,0-4.19-23-22-25.3C98.65,40,78.09,37.55,71.91,51.69Z"/><path class="cls-5" d="M38.42,302.41C37.89,303.25,69,167,59.77,169.09c-.85.19-17,1.69-19.43,6.58-7,14.17-12,125.7-12,125.7Z"/><path class="cls-5" d="M28.37,301.37s-5,23.27,13.94,25.81a2.66,2.66,0,0,0,2.87-1.76l.06-.16A2.67,2.67,0,0,0,43.76,322c-3.09-1.38-7.88-4.87-5.51-12.8,0,0,2.74-.34,4.26,4.77a2.19,2.19,0,0,0,3.09,1.36h0a2.21,2.21,0,0,0,1.19-2.24c-.46-3.59-2.26-12.2-9.17-14.52Z"/><path class="cls-6" d="M34.75,208.4s17.93,25.25,18,24.76S59,197.71,59,197.71l-21.75-9.42Z"/><path class="cls-17" d="M84.56,126.81c.76,0-44.3.81-52.54,57.72l25.9,4,5.22,43H135.4l14.34-79.38s-10.2-17.2-39.92-25.62Z"/><path class="cls-5" d="M62.53,133.69s6.37,8.46,32.47,8.46c25.85,0,32.46-8.9,32.46-8.9S112.22,124.74,94.54,122A117.1,117.1,0,0,0,62.53,133.69Z"/><polygon class="cls-18" points="151.2 313.98 151.27 427.47 207.41 427.47 211.73 313.98 151.2 313.98"/><polygon class="cls-18" points="273.11 313.98 273.05 427.47 216.9 427.47 212.59 313.98 273.11 313.98"/><rect class="cls-18" x="184.39" y="313.98" width="58.05" height="39.43"/><path class="cls-5" d="M308.58,214.94c3.48,38.45-.19,66.47.82,137.24l-33.51,1.4-5-132.46Z"/><path class="cls-6" d="M275,245s20.76-1.9,34.94-11.26l-.37-8.24L275,230.16Z"/><path class="cls-19" d="M241.74,126.39S307.66,143,319.6,226.63c0,0-32.26,14-64.59,8l7.27-28Z"/><path class="cls-5" d="M44.86,161.18l49.07,58-15,42.29s-37.31-51.86-54.07-91.94Z"/><path class="cls-5" d="M46.47,163.27S29.24,173,24.85,169.49c-7.66-6.16-14-28.69-14-28.69s32.23-12.15,31.93-11.67S46.47,163.27,46.47,163.27Z"/><path class="cls-5" d="M46.47,163.27c-.31-1.73,6.39-20.45,8.69-27.47a3.1,3.1,0,0,0-2.46-3.9h0a3.57,3.57,0,0,0-4,1.63l-8.09,13.82Z"/><path class="cls-5" d="M45.88,143l-5.55-27.61a3.48,3.48,0,0,0-4-2.76h0A3,3,0,0,0,33.85,116l2.42,20.56Z"/><path class="cls-5" d="M34.84,132.85l-7.53-19.71A3.46,3.46,0,0,0,23,111h0a3,3,0,0,0-2,3.54l5.6,22.78Z"/><path class="cls-5" d="M26.74,138.67l-9.53-19.38a3.79,3.79,0,0,0-4.84-1.85h0a3.31,3.31,0,0,0-1.71,4.36l7.61,18.29Z"/><path class="cls-5" d="M10.86,140.8,3.38,128.93a2.68,2.68,0,0,1,1.31-3.58h0a3.06,3.06,0,0,1,3.74,1.09l9.84,13.65Z"/><path class="cls-20" d="M44.37,141S33.13,139.78,32,154.76"/><path class="cls-5" d="M69,241.65s9.23,32,27.63,27.7,47.06-43.53,47.06-43.53l-6.42-67.09L85.61,222.28Z"/><path class="cls-6" d="M101.62,202.54s17.43,26.29,32.3,35.56l9.73-12.28-37.54-29Z"/><path class="cls-19" d="M177.88,124.94s-51.18,11.54-78.45,71c0,0,16.48,24.83,42.9,35.86L160,210.15Z"/><path class="cls-19" d="M177.88,124.76a128.13,128.13,0,0,0-32.56,23.85l4,173.85h126l-.41-172.95S259,134,241.74,126.39C227.12,120,192.09,117.47,177.88,124.76Z"/><path class="cls-21" d="M220,174.43h35a0,0,0,0,1,0,0v24.95a10.1,10.1,0,0,1-10.1,10.1H230.06A10.09,10.09,0,0,1,220,199.38V174.43A0,0,0,0,1,220,174.43Z"/><line class="cls-21" x1="275.03" y1="235.25" x2="276.67" y2="178.38"/><line class="cls-21" x1="147.26" y1="225.77" x2="144.53" y2="176.47"/><path class="cls-12" d="M179.35,61.26l-5.25-26c-.29-2.12-1.11-5.38-.11-8.45,1.67-5.08,7.78-14.83,18.23-10.36l2.26,10.28s-10.85,2.19-15.21,16.39Z"/><path class="cls-12" d="M191.45,21.83c-.19,3.41-3.21,18.35-13.8,23.79C177.65,45.62,168.37,25.72,191.45,21.83Z"/><path class="cls-5" d="M228.61,120h0V75.86H187.94V120l-12.11,5.52s2.84,18.29,32.87,18.69,33-17.79,33-17.79Z"/><path class="cls-12" d="M192.22,16.47s7.46-19.69,30.47-9.23c13.93,6.34,17.84,14.83,19.5,20.85a24.26,24.26,0,0,1,.62,7l-5.57,26.15L215.51,25.08l-21,1.67Z"/><path class="cls-6" d="M237.24,61.26S240,56.9,245.64,59s3.09,15.88-5.39,17.63a6.71,6.71,0,0,1-5.42-1.42S236.91,65.11,237.24,61.26Z"/><path class="cls-21" d="M244.52,63.89s-4.74-1.58-8.1,5.39"/><path class="cls-6" d="M179.35,61.26S176.61,56.9,171,59s-3.1,15.88,5.38,17.63a6.73,6.73,0,0,0,5.43-1.42S179.68,65.11,179.35,61.26Z"/><path class="cls-21" d="M172.08,63.89s4.74-1.58,8.1,5.39"/><path class="cls-5" d="M237.81,48.23c0,8.27-.81,25.6-5.9,35.88-4.78,9.65-12.68,14.84-23,15.15s-18.08-3.68-24.26-16.21-5.9-34.67-5.9-34.67,0-29.58,29.23-29.58C238.72,18.8,237.81,48.23,237.81,48.23Z"/><path class="cls-12" d="M188.24,89.22s3.41,17.28,18.45,19.27c17.31,2.28,21.92-18.83,21.92-18.83s-7.65,9.59-19.75,9.6A26.45,26.45,0,0,1,188.24,89.22Z"/><path class="cls-21" d="M206.17,60.5v6.85a2.31,2.31,0,0,0,.16.83A2.2,2.2,0,0,0,209,69.4l2.27-.6"/><path class="cls-12" d="M197.54,57.24a2.66,2.66,0,1,1-2.66-2.67A2.67,2.67,0,0,1,197.54,57.24Z"/><path class="cls-12" d="M222.49,57.24a2.67,2.67,0,1,1-2.66-2.67A2.67,2.67,0,0,1,222.49,57.24Z"/><path class="cls-12" d="M213,44l17.9,4.62s-.82-5-8.14-6.84S213,44,213,44Z"/><path class="cls-12" d="M201.9,44,184,48.62s.81-5,8.13-6.84S201.9,44,201.9,44Z"/><path class="cls-21" d="M198.34,74.24s2.64,2,9.58,2a24.17,24.17,0,0,0,10.25-2"/><circle class="cls-22" cx="194.16" cy="58.01" r="11.31"/><circle class="cls-22" cx="221.94" cy="58.01" r="11.31"/><path class="cls-22" d="M205.47,58s2.68-2.5,5.16,0"/><line class="cls-22" x1="182.85" y1="58.01" x2="179.06" y2="57.92"/><line class="cls-22" x1="233.25" y1="58.01" x2="237.48" y2="57.94"/><path class="cls-12" d="M188.24,22.5s5.43,15.43,29.94,15c16.65-.32,20.63,11.72,20.63,11.72s-2.9-26.93-3.66-26.68S209.81,16,209.81,16Z"/></g></svg>