<svg id="Layer_1" data-name="Layer 1" xmlns="http://www.w3.org/2000/svg" viewBox="0 0 653 448"><defs><style>.cls-1{fill:none;stroke:#ded8d5;stroke-miterlimit:10;stroke-width:1.97px;}.cls-2{fill:#d6e8ea;}.cls-3{fill:#ffb1a5;}.cls-4{fill:#ead254;}.cls-5{fill:#00857b;}.cls-6{fill:#7dc6a8;}.cls-7{fill:#fff;}</style></defs><rect class="cls-1" x="48.91" y="122.43" width="522.8" height="323.46" rx="6.52"/><path class="cls-2" d="M438.05,84.71V78.59c.09-.73.17-1.46.25-2.2a52.38,52.38,0,0,1,43-46.15c2-.35,4-.54,5.94-.81h6.12a5.29,5.29,0,0,0,.79.17,49.62,49.62,0,0,1,22.78,7.18c13.53,8.3,21.86,20.25,24.78,35.89.37,2,.55,4,.81,5.92v6.12c-.08.74-.16,1.47-.25,2.2a52.38,52.38,0,0,1-43,46.16c-2,.34-3.95.54-5.93.81h-6.12a5.29,5.29,0,0,0-.79-.17,49.63,49.63,0,0,1-22.78-7.19c-13.53-8.29-21.86-20.24-24.78-35.88C438.5,88.68,438.32,86.69,438.05,84.71Zm96.34-3a44.11,44.11,0,1,0-44.1,44.1A44.13,44.13,0,0,0,534.39,81.67Z"/><path class="cls-2" d="M486.22,69.83c0-4,0-8,0-11.94A4.05,4.05,0,0,1,491.77,54a4.18,4.18,0,0,1,2.57,4.24c0,6.74,0,13.47,0,20.2A2.78,2.78,0,0,0,495.62,81c4.36,3.19,8.66,6.47,13,9.7a4,4,0,1,1-4.5,6.72c-1.51-1-2.95-2.19-4.42-3.29-3.72-2.79-7.42-5.62-11.18-8.36a5.15,5.15,0,0,1-2.31-4.58C486.26,77.37,486.22,73.6,486.22,69.83Z"/><path class="cls-2" d="M598.39,445.62H16.28s-38.34-147.69,99.56-179.51,22.31-49.72,3.66-102.41,168-230,271.78-66.72,92.08,164.1,135.14,79.33S598.39,445.62,598.39,445.62Z"/><circle class="cls-2" cx="43.09" cy="186.83" r="11.88"/><path class="cls-2" d="M77.74,80.88a5.29,5.29,0,1,1-5.29-5.29A5.29,5.29,0,0,1,77.74,80.88Z"/><circle class="cls-2" cx="5.61" cy="102.54" r="5.78"/><path class="cls-2" d="M146.73,55.54a4.42,4.42,0,1,1-4.42-4.42A4.42,4.42,0,0,1,146.73,55.54Z"/><circle class="cls-2" cx="556.16" cy="126.04" r="4.7"/><path class="cls-2" d="M397.91,40.76A4.94,4.94,0,1,1,393,35.83,4.94,4.94,0,0,1,397.91,40.76Z"/><path class="cls-2" d="M428.08,4a2.91,2.91,0,1,1-2.91-2.91A2.91,2.91,0,0,1,428.08,4Z"/><line class="cls-1" x1="48.91" y1="156.7" x2="571.71" y2="156.7"/><path class="cls-3" d="M83.36,139.92a4.78,4.78,0,1,1-4.78-4.79A4.78,4.78,0,0,1,83.36,139.92Z"/><path class="cls-4" d="M102,139.92a4.79,4.79,0,1,1-4.78-4.79A4.78,4.78,0,0,1,102,139.92Z"/><path class="cls-5" d="M120.53,139.92a4.78,4.78,0,1,1-4.78-4.79A4.78,4.78,0,0,1,120.53,139.92Z"/><path class="cls-6" d="M637.55,379.69C616,387.93,600.14,411,591.11,427.56,609.59,387.7,649,298.18,621.8,314.84c-26.17,16.05-35.25,82.29-38.14,114,2.1-36.84,3.75-121.11-24.4-129.77-29.45-9.07,4.5,94.22,18.06,132.72-7.44-17.75-22.93-45.19-45.86-39.14-33.35,8.8,51,53.27,51,53.27C645.89,405.17,672.76,366.26,637.55,379.69Z"/><path class="cls-7" d="M646.18,382.28a.34.34,0,0,0-.48-.09c-7.74,5.25-16.81,13-25.59,21.12l-.05,0c-5,4.59-9.82,9.3-14.3,13.75l4.1-13a.36.36,0,0,0-.23-.44.36.36,0,0,0-.44.23l-4.5,14.25c-12,11.95-21,21.79-21.13,22a.35.35,0,0,0,0,.49.35.35,0,0,0,.23.09.36.36,0,0,0,.26-.11c.09-.1,2.46-2.69,6.32-6.77l10.2-3.09a.34.34,0,0,0,.23-.44.35.35,0,0,0-.43-.23l-9,2.74c6.86-7.22,17.75-18.4,29.15-28.95L632,402.8a.35.35,0,0,0,.31-.38.34.34,0,0,0-.38-.31l-10.55,1c8.52-7.84,17.26-15.27,24.74-20.35A.34.34,0,0,0,646.18,382.28Z"/><path class="cls-7" d="M585.14,435.4h.06a.35.35,0,0,0,.35-.28c0-.2.84-4.48,2.28-11.3l6.68-8.82a.35.35,0,0,0-.06-.49.34.34,0,0,0-.49.07l-5.8,7.64c2.86-13.42,7.9-35.28,14.3-55.77L616.85,356a.34.34,0,0,0-.4-.56l-13.64,9.9c6.37-20.19,14-38.87,22.24-46.54a.35.35,0,0,0,0-.49.34.34,0,0,0-.49,0c-5.22,4.88-10.22,14.16-14.81,25.44l-.94-12.18a.33.33,0,0,0-.37-.32.34.34,0,0,0-.32.37l1,13.56h0c-2.58,6.5-5,13.61-7.32,20.89a.34.34,0,0,0-.07.24c-2.39,7.66-4.59,15.5-6.56,23l-2.39-12.6a.35.35,0,0,0-.4-.27.34.34,0,0,0-.28.4l2.66,14h0c-6.11,23.61-9.88,43.65-10,44.09A.36.36,0,0,0,585.14,435.4Z"/><path class="cls-7" d="M561.1,419.89l-3.82-12.33a.35.35,0,1,0-.67.21l3.52,11.35c-4.33-3.45-8.79-6.87-12.89-9.95l0,0c-8.91-6.7-16.07-11.78-16.24-11.9a.34.34,0,0,0-.4.56c.16.12,6.87,4.87,15.36,11.24H535a.35.35,0,0,0,0,.7h11.86c12.09,9.09,27.36,21.14,32.75,27.84a.35.35,0,0,0,.27.13.34.34,0,0,0,.21-.08.35.35,0,0,0,.06-.49C576.69,432.86,569.21,426.38,561.1,419.89Z"/><path class="cls-7" d="M582.53,406.46a.36.36,0,0,0-.44.23l-3.32,10.79c-1.23-11.85-3.2-29.34-5.74-47.2l5.89-17.4a.35.35,0,0,0-.22-.44.34.34,0,0,0-.44.22l-5.45,16.1c-1.86-13-4-26.08-6.41-37.26L569.6,315a.35.35,0,0,0-.27-.41.34.34,0,0,0-.41.28L566,329.78c-2.68-12.19-5.64-21.87-8.79-26.26a.35.35,0,0,0-.49-.08.35.35,0,0,0-.08.48c4.48,6.24,8.62,23.76,12.11,43.93l-14.14-8.07a.36.36,0,0,0-.48.13.37.37,0,0,0,.13.48l14.64,8.35c2.32,13.54,4.35,28.22,6,41.43l-9.87-5.57a.35.35,0,0,0-.47.14.34.34,0,0,0,.13.47L575,391c2.8,22.66,4.46,40.83,4.5,41.28a.35.35,0,0,0,.35.31h0a.34.34,0,0,0,.31-.38c-.08-.88-.52-5.7-1.27-13l3.81-12.35A.36.36,0,0,0,582.53,406.46Z"/><path class="cls-6" d="M54.78,418c1.57-2.87,14.34-27,7.74-40.2-.89-1.78-1.76-2.61-2.73-2.61s-3.74,0-5.45,21.66c-.53,6.63-.8,13.31-.94,17.32-.13-.38-.27-.75-.41-1.13a.72.72,0,0,0-.11-.31c-1.43-3.91-3-8.05-4.66-12.29a.71.71,0,0,0-.13-.34q-1.05-2.65-2.16-5.36c1-3.3,11.38-39.39,1.85-51.38-1-1.22-1.86-1.82-2.72-1.82a1.9,1.9,0,0,0-1.45.71c-3.93,4.43-1.06,35.09.31,47.66a264.29,264.29,0,0,0-13.09-27,.7.7,0,0,0-.13-.24,100.84,100.84,0,0,0-10.45-15.36.72.72,0,0,0-1.09.93,91.07,91.07,0,0,1,8.89,12.72c-5.92-3.71-20.62-12.57-25.81-12.57a2.28,2.28,0,0,0-2.15,1c-.57,1-.21,2.53,1.13,4.82,5.13,8.77,14.09,10.6,20.69,10.6h0a36.78,36.78,0,0,0,7.88-.84,293.64,293.64,0,0,1,15.9,34c-6.73-5.89-26.11-22.35-32.82-22.35a2.72,2.72,0,0,0-2.05.76,3.29,3.29,0,0,0-.77,2.49c.35,11.66,32.79,21.1,36.89,22.25,1.43,3.64,2.78,7.21,4,10.62C46.07,409.47,31.1,403,21.59,403c-3.67,0-6.19,1-7.48,2.92a2.86,2.86,0,0,0-.33,3.09c1.76,3.28,11.67,5,29.48,5h0c4.05,0,7.28-.1,8.51-.14,5.73,15.75,9.34,27.79,9.42,28.08a.72.72,0,0,0,.69.51l.2,0a.71.71,0,0,0,.48-.89C62.49,441.25,59.55,431.46,54.78,418Zm1-21c1.56-19.77,3.78-20.34,4-20.34,0,0,.55,0,1.45,1.81,5.27,10.55-3,29.34-6.43,36.37C54.94,410.89,55.22,403.89,55.76,397ZM44.68,343.18c.2-.22.33-.22.38-.22s.68.12,1.6,1.28c7.63,9.61,1.39,37-1.18,46.75C43.84,376.18,41.38,346.91,44.68,343.18ZM21.92,363.34h0c-6.23,0-14.67-1.72-19.45-9.9C1,351,1.23,350.22,1.33,350.05s.63-.28.91-.28c5.08,0,21.13,9.87,26.07,13A36.62,36.62,0,0,1,21.92,363.34ZM11.49,378.8a2,2,0,0,1,.36-1.46,1.38,1.38,0,0,1,1-.32c5.49,0,22,13.3,31.78,21.9C36,396.25,11.77,388,11.49,378.8Zm31.77,33.75h0c-16.51,0-26.79-1.53-28.22-4.19-.16-.3-.3-.79.26-1.63,1-1.51,3.13-2.28,6.29-2.28,8.45,0,21.85,5.49,27.61,8C47.64,412.52,45.59,412.55,43.26,412.55Z"/></svg>