<svg id="Layer_1" data-name="Layer 1" xmlns="http://www.w3.org/2000/svg" viewBox="0 0 460.85 175.84"><defs><style>.cls-1{fill:#82b378;}.cls-2{fill:#a8d29f;}</style></defs><polygon class="cls-1" points="407.85 44.71 454.41 30.43 416.18 24.3 417.68 31.32 407.97 38.23 407.85 44.71"/><polygon class="cls-2" points="454.41 30.43 409.31 28.77 372.88 43.7 454.41 30.43"/><polygon class="cls-2" points="416.18 24.3 454.41 30.43 417.5 10.12 416.18 24.3"/><path class="cls-2" d="M3.42,141.55h0A1.27,1.27,0,0,1,2,140.43a10.91,10.91,0,0,1,.26-3.64,1.29,1.29,0,0,1,1.55-.93,1.24,1.24,0,0,1,1,1.49,8.88,8.88,0,0,0-.2,2.86A1.25,1.25,0,0,1,3.42,141.55Z"/><path class="cls-2" d="M44.37,150.64l-1.87.22a1.29,1.29,0,0,1-1.44-1.08,1.25,1.25,0,0,1,1.12-1.38h0c1.11-.13,2.24-.26,3.4-.41h0A1.29,1.29,0,0,1,47,149a1.26,1.26,0,0,1-1.11,1.4Z"/><path class="cls-2" d="M49.34,150a1.29,1.29,0,0,1-1.45-1,1.26,1.26,0,0,1,1.1-1.41c1.11-.15,2.25-.31,3.39-.49a1.29,1.29,0,0,1,1.48,1,1.26,1.26,0,0,1-1.08,1.42l-3.42.49Z"/><path class="cls-2" d="M39.09,151.23h0c-1.17.12-2.33.23-3.45.32a1.24,1.24,0,1,1-.23-2.47c1.1-.1,2.25-.2,3.4-.32a1.28,1.28,0,0,1,1.42,1.1A1.24,1.24,0,0,1,39.09,151.23Z"/><path class="cls-2" d="M56.15,149a1.28,1.28,0,0,1-1.44-1,1.24,1.24,0,0,1,1.06-1.42l3.39-.55a1.29,1.29,0,0,1,1.49,1,1.25,1.25,0,0,1-1,1.44l-3.41.55Z"/><path class="cls-2" d="M32.23,151.82h-.08c-1.19.08-2.35.14-3.46.19a1.24,1.24,0,1,1-.12-2.48c1.09,0,2.23-.11,3.4-.19a1.29,1.29,0,0,1,1.38,1.15A1.25,1.25,0,0,1,32.23,151.82Z"/><path class="cls-2" d="M62.94,147.85a1.28,1.28,0,0,1-1.43-1,1.24,1.24,0,0,1,1-1.44l3.38-.59a1.29,1.29,0,0,1,1.51,1,1.25,1.25,0,0,1-1,1.45l-3.4.59Z"/><path class="cls-2" d="M25.35,152.12h-.14c-1.21,0-2.39,0-3.5,0a1.26,1.26,0,0,1-1.26-1.26,1.28,1.28,0,0,1,1.32-1.22c1.08,0,2.22,0,3.39,0a1.24,1.24,0,0,1,.19,2.47Z"/><path class="cls-2" d="M69.71,146.64a1.28,1.28,0,0,1-1.43-1,1.26,1.26,0,0,1,1-1.46l3.37-.63a1.29,1.29,0,0,1,1.52,1,1.25,1.25,0,0,1-1,1.46l-3.38.63Z"/><path class="cls-2" d="M76.48,145.36a1.28,1.28,0,0,1-1.43-1,1.25,1.25,0,0,1,1-1.47l3.37-.66a1.28,1.28,0,0,1,1.52,1,1.24,1.24,0,0,1-1,1.47l-3.38.67Z"/><path class="cls-2" d="M83.22,144a1.27,1.27,0,0,1-1.42-1,1.23,1.23,0,0,1,1-1.47l3.36-.69a1.29,1.29,0,0,1,1.54,1,1.23,1.23,0,0,1-1,1.47l-3.37.7Z"/><path class="cls-2" d="M18.47,152h-.26c-1.25-.09-2.43-.22-3.52-.37a1.25,1.25,0,0,1-1.08-1.41,1.28,1.28,0,0,1,1.46-1.05c1,.15,2.14.27,3.33.35a1.24,1.24,0,0,1,.07,2.47Z"/><path class="cls-2" d="M90,142.61a1.3,1.3,0,0,1-1.43-1,1.25,1.25,0,0,1,1-1.48l3.35-.72a1.3,1.3,0,0,1,1.55.94,1.24,1.24,0,0,1-1,1.48l-3.37.72Z"/><path class="cls-2" d="M96.68,141.16a1.29,1.29,0,0,1-1.42-.95,1.24,1.24,0,0,1,1-1.49l3.35-.74a1.29,1.29,0,0,1,1.55.93,1.25,1.25,0,0,1-1,1.49l-3.37.74Z"/><path class="cls-2" d="M103.39,139.66a1.29,1.29,0,0,1-1.42-.94,1.25,1.25,0,0,1,1-1.5l3.35-.76a1.3,1.3,0,0,1,1.56.92,1.25,1.25,0,0,1-1,1.5l-3.36.76Z"/><path class="cls-2" d="M11.68,150.93a1.46,1.46,0,0,1-.51,0,17.64,17.64,0,0,1-3.47-1.28,1.21,1.21,0,0,1-.53-1.68,1.31,1.31,0,0,1,1.74-.51,15.29,15.29,0,0,0,2.94,1.08,1.23,1.23,0,0,1,.91,1.52A1.27,1.27,0,0,1,11.68,150.93Z"/><path class="cls-2" d="M110.09,138.13a1.28,1.28,0,0,1-1.41-.94,1.24,1.24,0,0,1,.95-1.5l3.34-.78a1.3,1.3,0,0,1,1.56.91,1.23,1.23,0,0,1-.94,1.5q-1.68.41-3.36.78A.58.58,0,0,1,110.09,138.13Z"/><path class="cls-2" d="M116.79,136.56a1.3,1.3,0,0,1-1.42-.94,1.24,1.24,0,0,1,.95-1.5l3.34-.79a1.28,1.28,0,0,1,1.56.9,1.23,1.23,0,0,1-.94,1.5l-3.35.8Z"/><path class="cls-2" d="M123.47,135a1.3,1.3,0,0,1-1.41-.93,1.23,1.23,0,0,1,.94-1.51l3.33-.81a1.29,1.29,0,0,1,1.57.9,1.22,1.22,0,0,1-.93,1.5l-3.34.82Z"/><path class="cls-2" d="M130.15,133.32a1.28,1.28,0,0,1-1.41-.92,1.24,1.24,0,0,1,.93-1.51l3.33-.83a1.3,1.3,0,0,1,1.57.89,1.24,1.24,0,0,1-.92,1.52l-3.34.82A.45.45,0,0,1,130.15,133.32Z"/><path class="cls-2" d="M136.81,131.67a1.3,1.3,0,0,1-1.41-.92,1.24,1.24,0,0,1,.92-1.52c1.11-.28,2.22-.55,3.33-.84a1.3,1.3,0,0,1,1.57.89,1.25,1.25,0,0,1-.92,1.52l-3.33.83Z"/><path class="cls-2" d="M5.84,147.67a1.31,1.31,0,0,1-1.21-.5l-.21-.31A15.89,15.89,0,0,1,2.87,144a1.22,1.22,0,0,1,.72-1.61,1.31,1.31,0,0,1,1.68.7,14.81,14.81,0,0,0,1.32,2.46l.13.18a1.22,1.22,0,0,1-.28,1.74A1.33,1.33,0,0,1,5.84,147.67Z"/><path class="cls-2" d="M143.47,130a1.27,1.27,0,0,1-1.41-.91,1.23,1.23,0,0,1,.91-1.52l3.33-.85a1.29,1.29,0,0,1,1.58.88,1.23,1.23,0,0,1-.91,1.52l-3.34.85Z"/><path class="cls-2" d="M150.13,128.27a1.29,1.29,0,0,1-1.41-.91,1.25,1.25,0,0,1,.91-1.52L153,125a1.29,1.29,0,0,1,1.58.88,1.23,1.23,0,0,1-.91,1.52l-3.34.87Z"/><path class="cls-2" d="M156.79,126.54a1.3,1.3,0,0,1-1.4-.91,1.23,1.23,0,0,1,.9-1.52l3.32-.88a1.3,1.3,0,0,1,1.59.87,1.24,1.24,0,0,1-.9,1.53l-3.33.87Z"/><path class="cls-2" d="M163.44,124.78a1.29,1.29,0,0,1-1.41-.9,1.24,1.24,0,0,1,.9-1.53l3.32-.88a1.3,1.3,0,0,1,1.59.87,1.23,1.23,0,0,1-.9,1.52l-3.32.89A1.13,1.13,0,0,1,163.44,124.78Z"/><path class="cls-2" d="M170.08,123a1.29,1.29,0,0,1-1.41-.9,1.24,1.24,0,0,1,.9-1.53l3.31-.89a1.29,1.29,0,0,1,1.59.86,1.22,1.22,0,0,1-.89,1.53l-3.32.89Z"/><path class="cls-2" d="M176.71,121.22a1.3,1.3,0,0,1-1.41-.89,1.25,1.25,0,0,1,.9-1.54l3.31-.9a1.29,1.29,0,0,1,1.59.86,1.23,1.23,0,0,1-.89,1.53l-3.31.9Z"/><path class="cls-2" d="M183.34,119.41a1.3,1.3,0,0,1-1.41-.89,1.24,1.24,0,0,1,.89-1.53l3.31-.91a1.3,1.3,0,0,1,1.6.85,1.23,1.23,0,0,1-.89,1.53l-3.31.91Z"/><path class="cls-2" d="M190,117.59a1.31,1.31,0,0,1-1.4-.89,1.24,1.24,0,0,1,.88-1.54l3.31-.92a1.3,1.3,0,0,1,1.6.85,1.24,1.24,0,0,1-.88,1.54l-3.31.92Z"/><path class="cls-2" d="M196.58,115.74a1.29,1.29,0,0,1-1.4-.88,1.23,1.23,0,0,1,.88-1.54l3.3-.92a1.29,1.29,0,0,1,1.6.84,1.23,1.23,0,0,1-.87,1.54l-3.31.93A1.38,1.38,0,0,1,196.58,115.74Z"/><path class="cls-2" d="M203.19,113.89a1.3,1.3,0,0,1-1.4-.88,1.23,1.23,0,0,1,.88-1.54l3.3-.94a1.31,1.31,0,0,1,1.61.84,1.23,1.23,0,0,1-.88,1.54l-3.31.94Z"/><path class="cls-2" d="M209.8,112a1.31,1.31,0,0,1-1.4-.88,1.25,1.25,0,0,1,.87-1.55l3.31-.94a1.3,1.3,0,0,1,1.6.84,1.22,1.22,0,0,1-.87,1.54l-3.3,1Z"/><path class="cls-2" d="M216.41,110.13a1.29,1.29,0,0,1-1.4-.88,1.24,1.24,0,0,1,.87-1.54l3.3-.95a1.31,1.31,0,0,1,1.61.84,1.24,1.24,0,0,1-.87,1.54l-3.3,1Z"/><path class="cls-2" d="M223,108.23a1.29,1.29,0,0,1-1.4-.87,1.24,1.24,0,0,1,.87-1.55l3.29-1a1.29,1.29,0,0,1,1.61.83,1.23,1.23,0,0,1-.86,1.54l-3.3,1Z"/><path class="cls-2" d="M229.61,106.32a1.31,1.31,0,0,1-1.4-.87,1.23,1.23,0,0,1,.86-1.55l3.3-1a1.3,1.3,0,0,1,1.61.82,1.23,1.23,0,0,1-.86,1.55l-3.3,1Z"/><path class="cls-2" d="M236.2,104.39a1.28,1.28,0,0,1-1.39-.87,1.23,1.23,0,0,1,.85-1.55l3.3-1a1.3,1.3,0,0,1,1.61.83,1.23,1.23,0,0,1-.86,1.55l-3.29,1Z"/><path class="cls-2" d="M242.79,102.45a1.28,1.28,0,0,1-1.39-.87,1.23,1.23,0,0,1,.85-1.55l3.29-1a1.3,1.3,0,0,1,1.62.82,1.23,1.23,0,0,1-.86,1.55l-3.29,1A.87.87,0,0,1,242.79,102.45Z"/><path class="cls-2" d="M249.38,100.5a1.3,1.3,0,0,1-1.4-.87,1.23,1.23,0,0,1,.85-1.55l3.3-1a1.3,1.3,0,0,1,1.61.82,1.23,1.23,0,0,1-.85,1.55l-3.29,1Z"/><path class="cls-2" d="M256,98.53a1.29,1.29,0,0,1-1.39-.86,1.24,1.24,0,0,1,.85-1.56l3.29-1a1.29,1.29,0,0,1,1.61.81,1.23,1.23,0,0,1-.84,1.56l-3.3,1A.79.79,0,0,1,256,98.53Z"/><path class="cls-2" d="M262.54,96.55a1.29,1.29,0,0,1-1.39-.86,1.22,1.22,0,0,1,.84-1.55l3.29-1a1.3,1.3,0,0,1,1.62.81,1.24,1.24,0,0,1-.84,1.56l-3.29,1A1,1,0,0,1,262.54,96.55Z"/><path class="cls-2" d="M269.12,94.56a1.3,1.3,0,0,1-1.39-.86,1.23,1.23,0,0,1,.84-1.56l3.29-1a1.3,1.3,0,0,1,1.62.81,1.24,1.24,0,0,1-.84,1.56l-3.29,1Z"/><path class="cls-2" d="M275.7,92.55a1.31,1.31,0,0,1-1.4-.85,1.23,1.23,0,0,1,.84-1.56l3.29-1a1.3,1.3,0,0,1,1.62.8,1.23,1.23,0,0,1-.83,1.56l-3.29,1Z"/><path class="cls-2" d="M282.27,90.53a1.3,1.3,0,0,1-1.39-.86,1.23,1.23,0,0,1,.84-1.56l3.28-1a1.31,1.31,0,0,1,1.63.8,1.23,1.23,0,0,1-.83,1.57l-3.29,1Z"/><path class="cls-2" d="M288.86,88.48a1.29,1.29,0,0,1-1.39-.85,1.23,1.23,0,0,1,.83-1.56l3.11-1a1.3,1.3,0,0,1,1.63.79,1.24,1.24,0,0,1-.82,1.57l-3.13,1Z"/><polygon class="cls-1" points="307.01 105.18 352 72.78 308.08 80.74 312.45 87.51 304.61 98.37 307.01 105.18"/><polygon class="cls-2" points="352 72.78 302.36 87.99 268.63 117.27 352 72.78"/><polygon class="cls-2" points="308.08 80.74 352 72.78 303.97 65.43 308.08 80.74"/></svg>