<svg xmlns="http://www.w3.org/2000/svg" xmlns:xlink="http://www.w3.org/1999/xlink" viewBox="0 0 400.34 732.03"><defs><style>.cls-1{isolation:isolate;}.cls-2{fill:url(#linear-gradient);}.cls-3{fill:url(#linear-gradient-2);}.cls-4{fill:url(#linear-gradient-3);}.cls-5,.cls-6,.cls-8{mix-blend-mode:screen;}.cls-5{fill:url(#linear-gradient-4);}.cls-6{fill:url(#linear-gradient-5);}.cls-7{fill:url(#linear-gradient-6);}.cls-8{fill:url(#linear-gradient-7);}.cls-9{fill:#fff;}.cls-10{fill:url(#linear-gradient-8);}.cls-11{fill:url(#linear-gradient-9);}.cls-12{fill:url(#linear-gradient-10);}</style><linearGradient id="linear-gradient" x1="-765.38" y1="261.77" x2="-765.38" y2="140.59" gradientTransform="matrix(-1, 0, 0, 1, -729.78, 0)" gradientUnits="userSpaceOnUse"><stop offset="0" stop-color="gray"/><stop offset="0.01" stop-color="#727272"/><stop offset="0.06" stop-color="#4f4f4f"/><stop offset="0.1" stop-color="#323232"/><stop offset="0.15" stop-color="#1c1c1c"/><stop offset="0.2" stop-color="#0c0c0c"/><stop offset="0.26" stop-color="#030303"/><stop offset="0.34"/><stop offset="0.7"/><stop offset="0.75" stop-color="#050505"/><stop offset="0.8" stop-color="#131313"/><stop offset="0.86" stop-color="#2a2a2a"/><stop offset="0.92" stop-color="#4b4b4b"/><stop offset="0.98" stop-color="#747474"/><stop offset="1" stop-color="gray"/></linearGradient><linearGradient id="linear-gradient-2" x1="-765.38" y1="325.42" x2="-765.38" y2="275.73" xlink:href="#linear-gradient"/><linearGradient id="linear-gradient-3" x1="-1110.66" y1="368.16" x2="-756.23" y2="368.16" gradientTransform="matrix(-1, 0, 0, 1, -729.78, 0)" gradientUnits="userSpaceOnUse"><stop offset="0" stop-color="#333"/><stop offset="0" stop-color="#323232"/><stop offset="0.03" stop-color="#1c1c1c"/><stop offset="0.06" stop-color="#0c0c0c"/><stop offset="0.1" stop-color="#030303"/><stop offset="0.15"/><stop offset="0.87"/><stop offset="0.91" stop-color="#050505"/><stop offset="0.95" stop-color="#131313"/><stop offset="0.99" stop-color="#2a2a2a"/><stop offset="1" stop-color="#333"/></linearGradient><linearGradient id="linear-gradient-4" x1="-932.61" y1="46.11" x2="-932.61" y2="21.75" gradientTransform="matrix(-1, 0, 0, 1, -729.78, 0)" gradientUnits="userSpaceOnUse"><stop offset="0"/><stop offset="0.16" stop-color="#050505"/><stop offset="0.34" stop-color="#131313"/><stop offset="0.53" stop-color="#2a2a2a"/><stop offset="0.74" stop-color="#4b4b4b"/><stop offset="0.95" stop-color="#747474"/><stop offset="1" stop-color="gray"/></linearGradient><linearGradient id="linear-gradient-5" x1="-2717.8" y1="-2393.2" x2="-2717.8" y2="-2417.57" gradientTransform="matrix(1, 0, 0, -1, 2918.63, -1703.2)" xlink:href="#linear-gradient-4"/><linearGradient id="linear-gradient-6" x1="34.5" y1="496.1" x2="835.84" y2="-112.84" gradientUnits="userSpaceOnUse"><stop offset="0" stop-color="#d8d8d9"/><stop offset="0.89" stop-color="#fff"/></linearGradient><linearGradient id="linear-gradient-7" x1="33.86" y1="552.82" x2="361.65" y2="77.64" gradientUnits="userSpaceOnUse"><stop offset="0" stop-color="#fff"/><stop offset="0.03" stop-color="#ededed"/><stop offset="0.14" stop-color="#b6b6b6"/><stop offset="0.26" stop-color="#868686"/><stop offset="0.37" stop-color="#5d5d5d"/><stop offset="0.49" stop-color="#3b3b3b"/><stop offset="0.61" stop-color="#212121"/><stop offset="0.73" stop-color="#0f0f0f"/><stop offset="0.86" stop-color="#040404"/><stop offset="1"/></linearGradient><linearGradient id="linear-gradient-8" x1="202.85" y1="23.08" x2="202.85" y2="60.56" gradientUnits="userSpaceOnUse"><stop offset="0"/><stop offset="0.14" stop-color="#050505"/><stop offset="0.3" stop-color="#131313"/><stop offset="0.47" stop-color="#2a2a2a"/><stop offset="0.65" stop-color="#4b4b4b"/><stop offset="0.83" stop-color="#747474"/><stop offset="1" stop-color="#a1a1a1"/></linearGradient><linearGradient id="linear-gradient-9" x1="148.1" y1="35.27" x2="148.1" y2="55.86" xlink:href="#linear-gradient-8"/><linearGradient id="linear-gradient-10" x1="256.95" y1="35.27" x2="256.95" y2="55.86" xlink:href="#linear-gradient-8"/></defs><g class="cls-1"><g id="Layer_1" data-name="Layer 1"><rect class="cls-2" x="29.75" y="140.59" width="11.69" height="121.18" rx="3.06"/><rect class="cls-3" x="29.75" y="275.73" width="11.69" height="49.7" rx="3.06"/><rect class="cls-4" x="33.01" y="24.19" width="339.63" height="687.94" rx="47.44"/><path class="cls-5" d="M84.43,27.78H321.22a47.43,47.43,0,0,1,47.43,47.43V82a47.43,47.43,0,0,0-47.43-47.44H84.43A47.43,47.43,0,0,0,37,82V75.21A47.43,47.43,0,0,1,84.43,27.78Z"/><path class="cls-6" d="M320.65,708.34H81c-26.52,0-48-21.24-48-47.44v-6.77c0,26.2,21.49,47.43,48,47.43H320.65c26.51,0,48-21.23,48-47.43v6.77C368.65,687.1,347.16,708.34,320.65,708.34Z"/><path class="cls-7" d="M363.94,75.62V660.7a35.9,35.9,0,0,1-36,35.86H77.72a35.9,35.9,0,0,1-36-35.86V75.62a35.74,35.74,0,0,1,30-35.24,27,27,0,0,1,6-.62h43.93a10.07,10.07,0,0,1,10.09,10.09A10.21,10.21,0,0,0,141.83,60.1h122a10.21,10.21,0,0,0,10.09-10.25A10.07,10.07,0,0,1,284,39.76h43.93A35.9,35.9,0,0,1,363.94,75.62Z"/><path class="cls-8" d="M363.94,75.62V532L71.67,40.38a27,27,0,0,1,6-.62h43.93a10.07,10.07,0,0,1,10.09,10.09A10.21,10.21,0,0,0,141.83,60.1h122a10.21,10.21,0,0,0,10.09-10.25A10.07,10.07,0,0,1,284,39.76h43.93A35.9,35.9,0,0,1,363.94,75.62Z"/><path class="cls-9" d="M363.94,75.62V660.7a35.9,35.9,0,0,1-36,35.86H77.72a35.9,35.9,0,0,1-36-35.86V75.62a35.74,35.74,0,0,1,30-35.24,27,27,0,0,1,6-.62h43.92a10.08,10.08,0,0,1,10.1,10.09,10.19,10.19,0,0,0,10.08,10.24h122a10.19,10.19,0,0,0,10.08-10.24A10.07,10.07,0,0,1,284,39.76h43.93A35.9,35.9,0,0,1,363.94,75.62Z"/><path class="cls-9" d="M363.94,75.62V532L71.67,40.38a27,27,0,0,1,6-.62h43.92a10.08,10.08,0,0,1,10.1,10.09,10.19,10.19,0,0,0,10.08,10.24h122a10.19,10.19,0,0,0,10.08-10.24A10.07,10.07,0,0,1,284,39.76h43.93A35.9,35.9,0,0,1,363.94,75.62Z"/><path class="cls-10" d="M241.48,50H164.21a2.15,2.15,0,0,1-2.15-2.15h0a2.15,2.15,0,0,1,2.15-2.15h77.27a2.15,2.15,0,0,1,2.15,2.15h0A2.15,2.15,0,0,1,241.48,50Z"/><path class="cls-11" d="M148.1,51.67a3.91,3.91,0,1,0-3.91-3.91,3.91,3.91,0,0,0,3.91,3.91Z"/><path class="cls-12" d="M257,51.67A3.91,3.91,0,1,0,253,47.76,3.91,3.91,0,0,0,257,51.67Z"/></g></g></svg>